<?xml version="1.0" encoding="UTF-8"?>
<svg id="Layer_2" data-name="Layer 2" xmlns="http://www.w3.org/2000/svg" xmlns:xlink="http://www.w3.org/1999/xlink" viewBox="0 0 129.73 40.84">
  <defs>
    <style>
      .cls-1, .cls-2, .cls-3, .cls-4, .cls-5, .cls-6, .cls-7, .cls-8 {
        stroke-miterlimit: 10;
      }

      .cls-1, .cls-2, .cls-3, .cls-5, .cls-6 {
        stroke-width: .1px;
      }

      .cls-1, .cls-2, .cls-4, .cls-5, .cls-7, .cls-8 {
        stroke: #010101;
      }

      .cls-1, .cls-8 {
        fill: #92cb7c;
      }

      .cls-9 {
        font-family: SwedenSans-Regular, 'Sweden Sans';
        font-size: 20px;
      }

      .cls-9, .cls-10 {
        fill: #231f20;
      }

      .cls-2, .cls-7 {
        fill: #d8bfdc;
      }

      .cls-10 {
        stroke-width: 0px;
      }

      .cls-3 {
        fill: url(#linear-gradient);
      }

      .cls-3, .cls-6 {
        stroke: #231f20;
      }

      .cls-4, .cls-5 {
        fill: #febe4b;
      }

      .cls-4, .cls-7, .cls-8 {
        stroke-width: .2px;
      }

      .cls-11 {
        letter-spacing: 0em;
      }

      .cls-6 {
        fill: url(#radial-gradient);
      }
    </style>
    <radialGradient id="radial-gradient" cx="66.22" cy="-25.32" fx="66.22" fy="-25.32" r="20.81" gradientTransform="translate(44.45 85.2) rotate(-91.2) scale(1 .94)" gradientUnits="userSpaceOnUse">
      <stop offset=".64" stop-color="#d4be94"/>
      <stop offset=".72" stop-color="#aa9271"/>
      <stop offset=".81" stop-color="#82684f"/>
      <stop offset=".88" stop-color="#6a4e3a"/>
      <stop offset=".92" stop-color="#614533"/>
    </radialGradient>
    <linearGradient id="linear-gradient" x1="16.53" y1="119.95" x2="27.9" y2="119.95" gradientTransform="translate(-60 150.6) rotate(-134) scale(1 1.25)" gradientUnits="userSpaceOnUse">
      <stop offset="0" stop-color="#d4be94"/>
      <stop offset="1" stop-color="#614534"/>
    </linearGradient>
  </defs>
  <g id="Layer_1-2" data-name="Layer 1">
    <g>
      <g>
        <g>
          <path class="cls-6" d="M32.75,2.36c-.11-.37-1.05-.3-2.15-.43-1.74-.21-2.62-.77-3.82-1.21C24.19-.22,21.66,0,18.1.34c-2.73.25-4.1.39-5.66,1.01-3.39,1.35-5.35,3.77-7.72,6.72-1.73,2.15-2.66,3.3-3.46,5.22C-.41,17.29.04,20.95.34,23.14c.23,1.68.69,4.8,2.72,8.14,4.26,7.03,11.68,8.82,12.64,9.04,4.4.99,8.05.17,9.9-.25,1.21-.27,2.45-.59,3.79-1.2.14-.06.56-.28,1.4-.72,1.29-.67,2.55-1.44,5.04-2.93.31-.19.46-.28.58-.44.9-1.24-.91-3.91-1.37-4.59-1.21-1.77-2.55-2.66-3.03-2.96-.46-.28-2.56-1.58-3.7-.93-.11.06-.49.28-.67.71-.14.34-.07.6-.05.97.03.71-.25,1.3-.4,1.63-.2.44-.6,1-1.72,1.58-2.46,1.26-4.93,1.32-5.2,1.33-2.24.04-5.37.13-8.38-1.88-4.81-3.2-5.38-8.73-5.48-9.68-.51-4.93,1.83-8.55,3.02-10.38.94-1.45,3.71-5.72,8.76-7.2.38-.11,4.36-1.25,7.67-.5,1.39.32,2.86.2,4.25.55.26.07.98.26,1.71-.06.51-.22,1.05-.7.96-1.01Z"/>
          <path class="cls-3" d="M28.19,26.65c.9-.87,3.39.26,5.57,2.52,2.18,2.26,3.22,4.79,2.33,5.66-.9.87-3.39-.26-5.57-2.52-2.18-2.26-3.22-4.79-2.33-5.66Z"/>
        </g>
        <g>
          <path class="cls-7" d="M22.91,5.34c.27-.41,1.49.48,2.67,0,1.09-.44,1.43-1.75,1.71-1.64.31.12-.41,1.67.27,2.46.63.74,2.1.4,2.12.62.03.24-1.9.27-2.26,1.16-.4,1.01,1.44,2.6,1.23,2.8-.19.19-1.46-1.4-2.8-1.16-1.13.2-1.72,1.58-1.98,1.44-.3-.17.67-1.89.14-2.39-.55-.52-2.38.57-2.46.41-.08-.15,1.79-.83,1.92-1.98.09-.82-.77-1.37-.55-1.71Z"/>
          <ellipse class="cls-10" cx="25.81" cy="7.36" rx=".63" ry=".9"/>
        </g>
        <g>
          <path class="cls-8" d="M18.82,7.19c.55.24-.27,1.89.56,3.22.76,1.22,2.41,1.36,2.34,1.71-.08.4-2.09-.15-2.91.85-.75.92-.04,2.61-.3,2.68-.29.08-.72-2.24-1.87-2.48-1.31-.27-2.83,2.28-3.12,2.07-.27-.19,1.38-2.06.81-3.62-.47-1.32-2.27-1.74-2.15-2.09.14-.4,2.42.41,2.91-.34.51-.77-1.18-2.75-1.01-2.88.16-.12,1.38,1.99,2.79,1.89,1.01-.07,1.49-1.22,1.95-1.02Z"/>
          <ellipse class="cls-10" cx="16.99" cy="11.11" rx=".77" ry="1.1"/>
        </g>
        <g>
          <g>
            <path class="cls-2" d="M29.57,29.38c.07-.1.37.12.66,0,.27-.11.36-.43.42-.41.08.03-.1.41.07.61.16.18.52.1.53.15,0,.06-.47.07-.56.29-.1.25.36.65.31.7-.05.05-.36-.35-.7-.29-.28.05-.43.39-.49.36-.08-.04.17-.47.03-.6-.14-.13-.59.14-.61.1-.02-.04.45-.21.48-.49.02-.2-.19-.34-.14-.43Z"/>
            <ellipse class="cls-10" cx="30.29" cy="29.88" rx=".16" ry=".22"/>
          </g>
          <g>
            <path class="cls-1" d="M31.51,26.89c.11.05-.05.38.11.65.15.25.49.28.47.35-.02.08-.43-.03-.59.17-.15.19,0,.53-.06.55-.06.02-.15-.45-.38-.5-.27-.05-.57.46-.63.42-.05-.04.28-.42.17-.74-.1-.27-.46-.35-.44-.42.03-.08.49.08.59-.07.1-.16-.24-.56-.21-.59.03-.02.28.4.57.38.21-.01.3-.25.4-.21Z"/>
            <ellipse class="cls-10" cx="31.14" cy="27.69" rx=".16" ry=".22"/>
          </g>
          <g>
            <path class="cls-2" d="M31.85,32.03c.07-.1.37.12.66,0,.27-.11.36-.43.42-.41.08.03-.1.41.07.61.16.18.52.1.53.15,0,.06-.47.07-.56.29-.1.25.36.65.31.7-.05.05-.36-.35-.7-.29-.28.05-.43.39-.49.36-.08-.04.17-.47.03-.6-.14-.13-.59.14-.61.1-.02-.04.45-.21.48-.49.02-.2-.19-.34-.14-.43Z"/>
            <ellipse class="cls-10" cx="32.57" cy="32.53" rx=".16" ry=".22"/>
          </g>
          <g>
            <path class="cls-5" d="M32.91,31.18c-.07.1-.37-.12-.66,0-.27.11-.36.43-.42.41-.08-.03.1-.41-.07-.61-.16-.18-.52-.1-.53-.15,0-.06.47-.07.56-.29.1-.25-.36-.65-.31-.7.05-.05.36.35.7.29.28-.05.43-.39.49-.36.08.04-.17.47-.03.6.14.13.59-.14.61-.1.02.04-.45.21-.48.49-.02.2.19.34.14.43Z"/>
            <ellipse class="cls-10" cx="32.19" cy="30.68" rx=".16" ry=".22"/>
          </g>
          <g>
            <path class="cls-5" d="M34.86,31.67c-.07.1-.37-.12-.66,0-.27.11-.36.43-.42.41-.08-.03.1-.41-.07-.61-.16-.18-.52-.1-.53-.15,0-.06.47-.07.56-.29.1-.25-.36-.65-.31-.7.05-.05.36.35.7.29.28-.05.43-.39.49-.36.08.04-.17.47-.03.6.14.13.59-.14.61-.1.02.04-.45.21-.48.49-.02.2.19.34.14.43Z"/>
            <ellipse class="cls-10" cx="34.13" cy="31.17" rx=".16" ry=".22"/>
          </g>
          <g>
            <path class="cls-1" d="M36.13,31.35c.11.05-.05.38.11.65.15.25.49.28.47.35-.02.08-.43-.03-.59.17-.15.19,0,.53-.06.55-.06.02-.15-.45-.38-.5-.27-.05-.57.46-.63.42-.05-.04.28-.42.17-.74-.1-.27-.46-.35-.44-.42.03-.08.49.08.59-.07.1-.16-.24-.56-.21-.59.03-.02.28.4.57.38.21-.01.3-.25.4-.21Z"/>
            <ellipse class="cls-10" cx="35.76" cy="32.15" rx=".16" ry=".22"/>
          </g>
          <g>
            <path class="cls-2" d="M32.89,27.85c.07-.1.37.12.66,0,.27-.11.36-.43.42-.41.08.03-.1.41.07.61.16.18.52.1.53.15,0,.06-.47.07-.56.29-.1.25.36.65.31.7-.05.05-.36-.35-.7-.29-.28.05-.43.39-.49.36-.08-.04.17-.47.03-.6-.14-.13-.59.14-.61.1-.02-.04.45-.21.48-.49.02-.2-.19-.34-.14-.43Z"/>
            <ellipse class="cls-10" cx="33.62" cy="28.35" rx=".16" ry=".22"/>
          </g>
          <g>
            <path class="cls-5" d="M33.02,25.89c-.07.1-.37-.12-.66,0-.27.11-.36.43-.42.41-.08-.03.1-.41-.07-.61-.16-.18-.52-.1-.53-.15,0-.06.47-.07.56-.29.1-.25-.36-.65-.31-.7.05-.05.36.35.7.29.28-.05.43-.39.49-.36.08.04-.17.47-.03.6.14.13.59-.14.61-.1.02.04-.45.21-.48.49-.02.2.19.34.14.43Z"/>
            <ellipse class="cls-10" cx="32.3" cy="25.38" rx=".16" ry=".22"/>
          </g>
          <g>
            <path class="cls-2" d="M37.92,29.45c.07-.1.37.12.66,0,.27-.11.36-.43.42-.41.08.03-.1.41.07.61.16.18.52.1.53.15,0,.06-.47.07-.56.29-.1.25.36.65.31.7-.05.05-.36-.35-.7-.29-.28.05-.43.39-.49.36-.08-.04.17-.47.03-.6-.14-.13-.59.14-.61.1-.02-.04.45-.21.48-.49.02-.2-.19-.34-.14-.43Z"/>
            <ellipse class="cls-10" cx="38.64" cy="29.96" rx=".16" ry=".22"/>
          </g>
          <g>
            <path class="cls-5" d="M37.03,28.18c-.07.1-.37-.12-.66,0-.27.11-.36.43-.42.41-.08-.03.1-.41-.07-.61-.16-.18-.52-.1-.53-.15,0-.06.47-.07.56-.29.1-.25-.36-.65-.31-.7.05-.05.36.35.7.29.28-.05.43-.39.49-.36.08.04-.17.47-.03.6.14.13.59-.14.61-.1.02.04-.45.21-.48.49-.02.2.19.34.14.43Z"/>
            <ellipse class="cls-10" cx="36.31" cy="27.68" rx=".16" ry=".22"/>
          </g>
          <g>
            <path class="cls-1" d="M36.49,28.96c.11.05-.05.38.11.65.15.25.49.28.47.35-.02.08-.43-.03-.59.17-.15.19,0,.53-.06.55-.06.02-.15-.45-.38-.5-.27-.05-.57.46-.63.42-.05-.04.28-.42.17-.74-.1-.27-.46-.35-.44-.42.03-.08.49.08.59-.07.1-.16-.24-.56-.21-.59.03-.02.28.4.57.38.21-.01.3-.25.4-.21Z"/>
            <ellipse class="cls-10" cx="36.12" cy="29.76" rx=".16" ry=".22"/>
          </g>
        </g>
        <g>
          <g>
            <path class="cls-2" d="M38.43,26.73c.1-.15.54.18.98,0,.4-.16.52-.64.62-.6.11.04-.15.61.1.9.23.27.77.15.78.23,0,.09-.7.1-.83.43-.15.37.53.95.45,1.03-.07.07-.54-.51-1.03-.43-.41.07-.63.58-.73.53-.11-.06.24-.69.05-.88-.2-.19-.87.21-.9.15-.03-.05.66-.3.7-.73.03-.3-.28-.5-.2-.63Z"/>
            <ellipse class="cls-10" cx="39.5" cy="27.47" rx=".23" ry=".33"/>
          </g>
          <g>
            <path class="cls-1" d="M39.98,23.59c.16.07-.08.57.17.96.23.37.72.41.7.51-.02.12-.63-.04-.87.25-.23.27-.01.78-.09.8-.09.03-.22-.67-.56-.74-.39-.08-.85.68-.93.62-.08-.06.41-.62.24-1.08-.14-.4-.68-.52-.64-.63.04-.12.72.12.87-.1.15-.23-.35-.82-.3-.86.05-.04.41.6.84.57.3-.02.45-.36.58-.3Z"/>
            <ellipse class="cls-10" cx="39.44" cy="24.77" rx=".23" ry=".33"/>
          </g>
          <g>
            <path class="cls-2" d="M33.97,24.64c.1-.15.54.18.98,0,.4-.16.52-.64.62-.6.11.04-.15.61.1.9.23.27.77.15.78.23,0,.09-.7.1-.83.43-.15.37.53.95.45,1.03-.07.07-.54-.51-1.03-.43-.41.07-.63.58-.73.53-.11-.06.24-.69.05-.88-.2-.19-.87.21-.9.15-.03-.05.66-.3.7-.73.03-.3-.28-.5-.2-.63Z"/>
            <ellipse class="cls-10" cx="35.04" cy="25.38" rx=".23" ry=".33"/>
          </g>
          <g>
            <path class="cls-1" d="M37.54,21.14c.16.07-.08.57.17.96.23.37.72.41.7.51-.02.12-.63-.04-.87.25-.23.27-.01.78-.09.8-.09.03-.22-.67-.56-.74-.39-.08-.85.68-.93.62-.08-.06.41-.62.24-1.08-.14-.4-.68-.52-.64-.63.04-.12.72.12.87-.1.15-.23-.35-.82-.3-.86.05-.04.41.6.84.57.3-.02.45-.36.58-.3Z"/>
            <ellipse class="cls-10" cx="36.99" cy="22.32" rx=".23" ry=".33"/>
          </g>
          <g>
            <path class="cls-2" d="M37.04,18.58c.1-.15.54.18.98,0,.4-.16.52-.64.62-.6.11.04-.15.61.1.9.23.27.77.15.78.23,0,.09-.7.1-.83.43-.15.37.53.95.45,1.03-.07.07-.54-.51-1.03-.43-.41.07-.63.58-.73.53-.11-.06.24-.69.05-.88-.2-.19-.87.21-.9.15-.03-.05.66-.3.7-.73.03-.3-.28-.5-.2-.63Z"/>
            <ellipse class="cls-10" cx="38.1" cy="19.32" rx=".23" ry=".33"/>
          </g>
          <g>
            <path class="cls-5" d="M42.14,22.73c-.1.15-.54-.18-.98,0-.4.16-.52.64-.62.6-.11-.04.15-.61-.1-.9-.23-.27-.77-.15-.78-.23,0-.09.7-.1.83-.43.15-.37-.53-.95-.45-1.03.07-.07.54.51,1.03.43.41-.07.63-.58.73-.53.11.06-.24.69-.05.88.2.19.87-.21.9-.15.03.05-.66.3-.7.73-.03.3.28.5.2.63Z"/>
            <ellipse class="cls-10" cx="41.08" cy="21.99" rx=".23" ry=".33"/>
          </g>
          <g>
            <path class="cls-1" d="M41.71,17.49c.16.07-.08.57.17.96.23.37.72.41.7.51-.02.12-.63-.04-.87.25-.23.27-.01.78-.09.8-.09.03-.22-.67-.56-.74-.39-.08-.85.68-.93.62-.08-.06.41-.62.24-1.08-.14-.4-.68-.52-.64-.63.04-.12.72.12.87-.1.15-.23-.35-.82-.3-.86.05-.04.41.6.84.57.3-.02.45-.36.58-.3Z"/>
            <ellipse class="cls-10" cx="41.17" cy="18.66" rx=".23" ry=".33"/>
          </g>
          <g>
            <path class="cls-5" d="M34.81,23.02c-.1.15-.54-.18-.98,0-.4.16-.52.64-.62.6-.11-.04.15-.61-.1-.9-.23-.27-.77-.15-.78-.23,0-.09.7-.1.83-.43.15-.37-.53-.95-.45-1.03.07-.07.54.51,1.03.43.41-.07.63-.58.73-.53.11.06-.24.69-.05.88.2.19.87-.21.9-.15.03.05-.66.3-.7.73-.03.3.28.5.2.63Z"/>
            <ellipse class="cls-10" cx="33.74" cy="22.28" rx=".23" ry=".33"/>
          </g>
        </g>
        <g>
          <path class="cls-2" d="M32.1,16.5c.16-.24.88.28,1.58,0,.64-.26.84-1.03,1.01-.97.18.07-.24.98.16,1.45.37.43,1.24.24,1.25.36.02.14-1.12.16-1.33.69-.24.6.85,1.53.73,1.66-.11.11-.86-.82-1.66-.69-.67.12-1.02.94-1.17.85-.18-.1.39-1.12.08-1.41-.32-.31-1.41.33-1.45.24-.04-.09,1.06-.49,1.13-1.17.05-.49-.46-.81-.32-1.01Z"/>
          <ellipse class="cls-10" cx="33.81" cy="17.69" rx=".37" ry=".53"/>
        </g>
        <g>
          <path class="cls-4" d="M32.88,14.73c-.16.24-.88-.28-1.58,0-.64.26-.84,1.03-1.01.97-.18-.07.24-.98-.16-1.45-.37-.43-1.24-.24-1.25-.36-.02-.14,1.12-.16,1.33-.69.24-.6-.85-1.53-.73-1.66.11-.11.86.82,1.66.69.67-.12,1.02-.94,1.17-.85.18.1-.39,1.12-.08,1.41.32.31,1.41-.33,1.45-.24.04.09-1.06.49-1.13,1.17-.05.49.46.81.32,1.01Z"/>
          <ellipse class="cls-10" cx="31.16" cy="13.54" rx=".37" ry=".53"/>
        </g>
        <g>
          <path class="cls-8" d="M36.18,10.05c.27.12-.13.91.27,1.55.37.59,1.16.65,1.13.83-.04.19-1.01-.07-1.4.41-.36.44-.02,1.26-.14,1.3-.14.04-.35-1.08-.91-1.2-.63-.13-1.36,1.1-1.51,1-.13-.09.66-.99.39-1.75-.23-.64-1.1-.84-1.04-1.01.07-.19,1.17.2,1.41-.16.25-.37-.57-1.33-.49-1.39.08-.06.66.96,1.35.91.49-.03.72-.59.94-.49Z"/>
          <ellipse class="cls-10" cx="35.3" cy="11.94" rx=".37" ry=".53"/>
        </g>
        <g>
          <path class="cls-2" d="M37.2,13.34c.16-.24.88.28,1.58,0,.64-.26.84-1.03,1.01-.97.18.07-.24.98.16,1.45.37.43,1.24.24,1.25.36.02.14-1.12.16-1.33.69-.24.6.85,1.53.73,1.66-.11.11-.86-.82-1.66-.69-.67.12-1.02.94-1.17.85-.18-.1.39-1.12.08-1.41-.32-.31-1.41.33-1.45.24-.04-.09,1.06-.49,1.13-1.17.05-.49-.46-.81-.32-1.01Z"/>
          <ellipse class="cls-10" cx="38.92" cy="14.53" rx=".37" ry=".53"/>
        </g>
        <g>
          <path class="cls-4" d="M34.33,8.55c-.16.24-.88-.28-1.58,0-.64.26-.84,1.03-1.01.97-.18-.07.24-.98-.16-1.45-.37-.43-1.24-.24-1.25-.36-.02-.14,1.12-.16,1.33-.69.24-.6-.85-1.53-.73-1.66.11-.11.86.82,1.66.69.67-.12,1.02-.94,1.17-.85.18.1-.39,1.12-.08,1.41.32.31,1.41-.33,1.45-.24.04.09-1.06.49-1.13,1.17-.05.49.46.81.32,1.01Z"/>
          <ellipse class="cls-10" cx="32.61" cy="7.36" rx=".37" ry=".53"/>
        </g>
        <g>
          <path class="cls-4" d="M22.86,26.94c-.55.82-2.98-.96-5.36,0-2.19.89-2.87,3.51-3.42,3.29-.63-.24.83-3.34-.55-4.94-1.27-1.48-4.21-.81-4.26-1.24-.05-.49,3.82-.54,4.53-2.33.8-2.03-2.88-5.21-2.47-5.63.38-.38,2.94,2.8,5.63,2.33,2.27-.4,3.45-3.18,3.98-2.88.61.34-1.34,3.8-.27,4.8,1.1,1.04,4.78-1.14,4.94-.82.15.3-3.6,1.66-3.84,3.98-.17,1.65,1.55,2.76,1.1,3.43Z"/>
          <ellipse class="cls-10" cx="17.03" cy="22.89" rx="1.26" ry="1.8"/>
        </g>
      </g>
      <text class="cls-9" transform="translate(51.01 26.48)"><tspan x="0" y="0">heimd</tspan><tspan class="cls-11" x="54.76" y="0">a</tspan><tspan x="64.56" y="0">ll</tspan></text>
    </g>
  </g>
</svg>
